<?xml version="1.0" encoding="UTF-8" standalone="no"?>
<!DOCTYPE svg PUBLIC "-//W3C//DTD SVG 1.1//EN" "http://www.w3.org/Graphics/SVG/1.1/DTD/svg11.dtd">
<svg width="100%" height="100%" viewBox="0 0 800 800" version="1.1" xmlns="http://www.w3.org/2000/svg" xmlns:xlink="http://www.w3.org/1999/xlink" xml:space="preserve" xmlns:serif="http://www.serif.com/" style="fill-rule:evenodd;clip-rule:evenodd;stroke-linecap:round;stroke-linejoin:round;stroke-miterlimit:1;">
    <g transform="matrix(1,0,0,1,-235,-1950)">
        <g transform="matrix(2.02015,0,0,2.02017,-55.2615,1393.69)">
            <rect x="142.327" y="275.741" width="396.011" height="396.011" style="fill:none;"/>
            <g transform="matrix(0.671642,0,0,0.671642,115.455,159.263)">
                <g>
                    <g transform="matrix(0.495014,0,0,0.495007,23.1717,-121.44)">
                        <path d="M555.126,893.461L331.793,893.461L331.793,1116.79L555.126,1116.79L555.126,893.461ZM516.237,932.35L516.237,1077.9C516.237,1077.9 370.682,1077.9 370.682,1077.9C370.681,1077.9 370.681,932.35 370.681,932.35C370.682,932.35 516.237,932.35 516.237,932.35L516.237,932.35Z"/>
                    </g>
                    <g transform="matrix(0.166236,0,0,0.166234,168.971,209.019)">
                        <rect x="331.793" y="893.461" width="223.333" height="223.333"/>
                    </g>
                </g>
                <g transform="matrix(1,0,0,1,184.255,2.84217e-14)">
                    <g transform="matrix(0.495014,0,0,0.495007,23.1717,-121.44)">
                        <path d="M555.126,893.461L331.793,893.461L331.793,1116.79L555.126,1116.79L555.126,893.461ZM516.237,932.35L516.237,1077.9C516.237,1077.9 370.682,1077.9 370.682,1077.9C370.681,1077.9 370.681,932.35 370.681,932.35C370.682,932.35 516.237,932.35 516.237,932.35L516.237,932.35Z"/>
                    </g>
                    <g transform="matrix(0.166236,0,0,0.166234,168.971,209.019)">
                        <rect x="331.793" y="893.461" width="223.333" height="223.333"/>
                    </g>
                </g>
                <g transform="matrix(1,0,0,1,5.68434e-14,184.253)">
                    <g transform="matrix(0.495014,0,0,0.495007,23.1717,-121.44)">
                        <path d="M555.126,893.461L331.793,893.461L331.793,1116.79L555.126,1116.79L555.126,893.461ZM516.237,932.35L516.237,1077.9C516.237,1077.9 370.682,1077.9 370.682,1077.9C370.681,1077.9 370.681,932.35 370.681,932.35C370.682,932.35 516.237,932.35 516.237,932.35L516.237,932.35Z"/>
                    </g>
                    <g transform="matrix(0.166236,0,0,0.166234,168.971,209.019)">
                        <rect x="331.793" y="893.461" width="223.333" height="223.333"/>
                    </g>
                </g>
                <g transform="matrix(0.539818,0,0,0.539811,12.868,-175.392)">
                    <rect x="323.341" y="1124.05" width="68.266" height="68.266"/>
                </g>
                <g transform="matrix(0.539818,0,0,0.539811,49.719,-138.542)">
                    <rect x="323.341" y="1124.05" width="68.266" height="68.266"/>
                </g>
                <g transform="matrix(0.539818,0,0,0.539811,86.57,-175.392)">
                    <rect x="323.341" y="1124.05" width="68.266" height="68.266"/>
                </g>
                <g transform="matrix(0.539818,0,0,0.539811,123.421,-138.542)">
                    <rect x="323.341" y="1124.05" width="68.266" height="68.266"/>
                </g>
                <g transform="matrix(0.539818,0,0,0.539811,123.421,-285.944)">
                    <rect x="323.341" y="1124.05" width="68.266" height="68.266"/>
                </g>
                <g transform="matrix(0.539818,0,0,0.539811,160.272,-175.392)">
                    <rect x="323.341" y="1124.05" width="68.266" height="68.266"/>
                </g>
                <g transform="matrix(0.539818,0,0,0.539811,123.421,-212.243)">
                    <rect x="323.341" y="1124.05" width="68.266" height="68.266"/>
                </g>
                <g transform="matrix(0.539818,0,0,0.539811,160.272,-249.094)">
                    <rect x="323.341" y="1124.05" width="68.266" height="68.266"/>
                </g>
                <g transform="matrix(0.539818,0,0,0.539811,197.123,-138.542)">
                    <rect x="323.341" y="1124.05" width="68.266" height="68.266"/>
                </g>
                <g transform="matrix(0.539818,0,0,0.539811,233.974,-175.392)">
                    <rect x="323.341" y="1124.05" width="68.266" height="68.266"/>
                </g>
                <g transform="matrix(0.539818,0,0,0.539811,160.272,-27.9904)">
                    <rect x="323.341" y="1124.05" width="68.266" height="68.266"/>
                </g>
                <g transform="matrix(0.539818,0,0,0.539811,233.974,-27.9904)">
                    <rect x="323.341" y="1124.05" width="68.266" height="68.266"/>
                </g>
                <g transform="matrix(0.539818,0,0,0.539811,160.272,-101.691)">
                    <rect x="323.341" y="1124.05" width="68.266" height="68.266"/>
                </g>
                <g transform="matrix(0.539818,0,0,0.539811,233.974,-101.691)">
                    <rect x="323.341" y="1124.05" width="68.266" height="68.266"/>
                </g>
                <g transform="matrix(0.539818,0,0,0.539811,270.825,-138.542)">
                    <rect x="323.341" y="1124.05" width="68.266" height="68.266"/>
                </g>
                <g transform="matrix(0.539818,0,0,0.539811,123.421,-64.8409)">
                    <rect x="323.341" y="1124.05" width="68.266" height="68.266"/>
                </g>
                <g transform="matrix(0.539818,0,0,0.539811,197.123,-64.8409)">
                    <rect x="323.341" y="1124.05" width="68.266" height="68.266"/>
                </g>
                <g transform="matrix(0.539818,0,0,0.539811,270.825,-64.8409)">
                    <rect x="323.341" y="1124.05" width="68.266" height="68.266"/>
                </g>
            </g>
            <g transform="matrix(1,0,0,1,5.51521,5.51514)">
                <g transform="matrix(0.495014,0,0,0.495007,31.1187,-125.005)">
                    <path d="M313.516,998.439L313.516,898.439L413.516,898.439" style="fill:none;stroke:black;stroke-width:22.22px;"/>
                </g>
                <g transform="matrix(3.03108e-17,0.495007,-0.495014,3.03104e-17,928.061,164.536)">
                    <path d="M313.516,998.439L313.516,898.439L413.516,898.439" style="fill:none;stroke:black;stroke-width:22.22px;"/>
                </g>
                <g transform="matrix(0.495014,0,0,-0.495007,31.1187,1061.47)">
                    <path d="M313.516,998.439L313.516,898.439L413.516,898.439" style="fill:none;stroke:black;stroke-width:22.22px;"/>
                </g>
                <g transform="matrix(3.03108e-17,-0.495007,-0.495014,-3.03104e-17,928.061,771.926)">
                    <path d="M313.516,998.439L313.516,898.439L413.516,898.439" style="fill:none;stroke:black;stroke-width:22.22px;"/>
                </g>
            </g>
        </g>
    </g>
</svg>
