<?xml version="1.0" encoding="UTF-8" standalone="no"?>
<!DOCTYPE svg PUBLIC "-//W3C//DTD SVG 1.1//EN" "http://www.w3.org/Graphics/SVG/1.1/DTD/svg11.dtd">
<svg width="100%" height="100%" viewBox="0 0 800 800" version="1.1" xmlns="http://www.w3.org/2000/svg" xmlns:xlink="http://www.w3.org/1999/xlink" xml:space="preserve" xmlns:serif="http://www.serif.com/" style="fill-rule:evenodd;clip-rule:evenodd;stroke-linejoin:round;stroke-miterlimit:2;">
    <g transform="matrix(1,0,0,1,-1159,-809)">
        <g transform="matrix(2.02015,0,0,2.02017,868.758,252.584)">
            <rect x="142.327" y="275.741" width="396.011" height="396.011" style="fill:none;"/>
            <g>
                <g transform="matrix(0.671642,0,0,0.671642,115.455,159.263)">
                    <g transform="matrix(0.495014,0,0,0.495007,23.1717,-121.44)">
                        <path d="M555.126,893.461L331.793,893.461L331.793,1116.79L555.126,1116.79L555.126,893.461ZM516.237,932.35L516.237,1077.9C516.237,1077.9 370.682,1077.9 370.682,1077.9C370.681,1077.9 370.681,932.35 370.681,932.35C370.682,932.35 516.237,932.35 516.237,932.35L516.237,932.35Z" style="fill:url(#_Linear1);"/>
                    </g>
                    <g transform="matrix(0.166236,0,0,0.166234,168.971,209.019)">
                        <rect x="331.793" y="893.461" width="223.333" height="223.333" style="fill:url(#_Linear2);"/>
                    </g>
                </g>
                <g transform="matrix(0.671642,0,0,0.671642,239.209,159.263)">
                    <g transform="matrix(0.495014,0,0,0.495007,23.1717,-121.44)">
                        <path d="M555.126,893.461L331.793,893.461L331.793,1116.79L555.126,1116.79L555.126,893.461ZM516.237,932.35L516.237,1077.9C516.237,1077.9 370.682,1077.9 370.682,1077.9C370.681,1077.9 370.681,932.35 370.681,932.35C370.682,932.35 516.237,932.35 516.237,932.35L516.237,932.35Z" style="fill:url(#_Linear3);"/>
                    </g>
                    <g transform="matrix(0.166236,0,0,0.166234,168.971,209.019)">
                        <rect x="331.793" y="893.461" width="223.333" height="223.333" style="fill:url(#_Linear4);"/>
                    </g>
                </g>
                <g transform="matrix(0.671642,0,0,0.671642,115.455,283.014)">
                    <g transform="matrix(0.495014,0,0,0.495007,23.1717,-121.44)">
                        <path d="M555.126,893.461L331.793,893.461L331.793,1116.79L555.126,1116.79L555.126,893.461ZM516.237,932.35L516.237,1077.9C516.237,1077.9 370.682,1077.9 370.682,1077.9C370.681,1077.9 370.681,932.35 370.681,932.35C370.682,932.35 516.237,932.35 516.237,932.35L516.237,932.35Z" style="fill:url(#_Linear5);"/>
                    </g>
                    <g transform="matrix(0.166236,0,0,0.166234,168.971,209.019)">
                        <rect x="331.793" y="893.461" width="223.333" height="223.333" style="fill:url(#_Linear6);"/>
                    </g>
                </g>
                <g transform="matrix(0.671642,0,0,0.671642,115.455,159.263)">
                    <g transform="matrix(0.539818,0,0,0.539811,12.868,-175.392)">
                        <rect x="323.341" y="1124.05" width="68.266" height="68.266" style="fill:url(#_Linear7);"/>
                    </g>
                    <g transform="matrix(0.539818,0,0,0.539811,49.719,-138.542)">
                        <rect x="323.341" y="1124.05" width="68.266" height="68.266" style="fill:url(#_Linear8);"/>
                    </g>
                    <g transform="matrix(0.539818,0,0,0.539811,86.57,-175.392)">
                        <rect x="323.341" y="1124.05" width="68.266" height="68.266" style="fill:url(#_Linear9);"/>
                    </g>
                    <g transform="matrix(0.539818,0,0,0.539811,123.421,-138.542)">
                        <rect x="323.341" y="1124.05" width="68.266" height="68.266" style="fill:url(#_Linear10);"/>
                    </g>
                    <g transform="matrix(0.539818,0,0,0.539811,123.421,-285.944)">
                        <rect x="323.341" y="1124.05" width="68.266" height="68.266" style="fill:url(#_Linear11);"/>
                    </g>
                    <g transform="matrix(0.539818,0,0,0.539811,160.272,-175.392)">
                        <rect x="323.341" y="1124.05" width="68.266" height="68.266" style="fill:url(#_Linear12);"/>
                    </g>
                    <g transform="matrix(0.539818,0,0,0.539811,123.421,-212.243)">
                        <rect x="323.341" y="1124.05" width="68.266" height="68.266" style="fill:url(#_Linear13);"/>
                    </g>
                    <g transform="matrix(0.539818,0,0,0.539811,160.272,-249.094)">
                        <rect x="323.341" y="1124.05" width="68.266" height="68.266" style="fill:url(#_Linear14);"/>
                    </g>
                    <g transform="matrix(0.539818,0,0,0.539811,197.123,-138.542)">
                        <rect x="323.341" y="1124.05" width="68.266" height="68.266" style="fill:url(#_Linear15);"/>
                    </g>
                    <g transform="matrix(0.539818,0,0,0.539811,233.974,-175.392)">
                        <rect x="323.341" y="1124.05" width="68.266" height="68.266" style="fill:url(#_Linear16);"/>
                    </g>
                    <g transform="matrix(0.539818,0,0,0.539811,160.272,-27.9904)">
                        <rect x="323.341" y="1124.05" width="68.266" height="68.266" style="fill:url(#_Linear17);"/>
                    </g>
                    <g transform="matrix(0.539818,0,0,0.539811,233.974,-27.9904)">
                        <rect x="323.341" y="1124.05" width="68.266" height="68.266" style="fill:url(#_Linear18);"/>
                    </g>
                    <g transform="matrix(0.539818,0,0,0.539811,160.272,-101.691)">
                        <rect x="323.341" y="1124.05" width="68.266" height="68.266" style="fill:url(#_Linear19);"/>
                    </g>
                    <g transform="matrix(0.539818,0,0,0.539811,233.974,-101.691)">
                        <rect x="323.341" y="1124.05" width="68.266" height="68.266" style="fill:url(#_Linear20);"/>
                    </g>
                    <g transform="matrix(0.539818,0,0,0.539811,270.825,-138.542)">
                        <rect x="323.341" y="1124.05" width="68.266" height="68.266" style="fill:url(#_Linear21);"/>
                    </g>
                    <g transform="matrix(0.539818,0,0,0.539811,123.421,-64.8409)">
                        <rect x="323.341" y="1124.05" width="68.266" height="68.266" style="fill:url(#_Linear22);"/>
                    </g>
                    <g transform="matrix(0.539818,0,0,0.539811,197.123,-64.8409)">
                        <rect x="323.341" y="1124.05" width="68.266" height="68.266" style="fill:url(#_Linear23);"/>
                    </g>
                    <g transform="matrix(0.539818,0,0,0.539811,270.825,-64.8409)">
                        <rect x="323.341" y="1124.05" width="68.266" height="68.266" style="fill:url(#_Linear24);"/>
                    </g>
                </g>
                <g transform="matrix(1,0,0,1,5.51521,5.51514)">
                    <g transform="matrix(0.495014,0,0,0.495007,31.1187,-125.005)">
                        <path d="M324.627,998.439L324.627,909.55C324.627,909.55 413.516,909.55 413.516,909.55C419.649,909.55 424.627,904.572 424.627,898.439C424.627,892.307 419.649,887.328 413.516,887.328L313.516,887.328C307.38,887.328 302.405,892.303 302.405,898.439L302.405,998.439C302.405,1004.57 307.384,1009.55 313.516,1009.55C319.649,1009.55 324.627,1004.57 324.627,998.439Z" style="fill:url(#_Linear25);"/>
                    </g>
                    <g transform="matrix(3.03108e-17,0.495007,-0.495014,3.03104e-17,928.061,164.536)">
                        <path d="M324.627,998.439L324.627,909.55C324.627,909.55 413.516,909.55 413.516,909.55C419.649,909.55 424.627,904.572 424.627,898.439C424.627,892.307 419.649,887.328 413.516,887.328L313.516,887.328C307.38,887.328 302.405,892.303 302.405,898.439L302.405,998.439C302.405,1004.57 307.384,1009.55 313.516,1009.55C319.649,1009.55 324.627,1004.57 324.627,998.439Z" style="fill:url(#_Linear26);"/>
                    </g>
                    <g transform="matrix(0.495014,0,0,-0.495007,31.1187,1061.47)">
                        <path d="M302.405,998.439L302.405,898.439C302.405,892.303 307.38,887.328 313.516,887.328L413.516,887.328C419.649,887.328 424.627,892.307 424.627,898.439C424.627,904.572 419.649,909.55 413.516,909.55L324.627,909.55C324.627,909.55 324.627,998.439 324.627,998.439C324.627,1004.57 319.649,1009.55 313.516,1009.55C307.384,1009.55 302.405,1004.57 302.405,998.439Z" style="fill:url(#_Linear27);"/>
                    </g>
                    <g transform="matrix(3.03108e-17,-0.495007,-0.495014,-3.03104e-17,928.061,771.926)">
                        <path d="M302.405,998.439L302.405,898.439C302.405,892.303 307.38,887.328 313.516,887.328L413.516,887.328C419.649,887.328 424.627,892.307 424.627,898.439C424.627,904.572 419.649,909.55 413.516,909.55L324.627,909.55C324.627,909.55 324.627,998.439 324.627,998.439C324.627,1004.57 319.649,1009.55 313.516,1009.55C307.384,1009.55 302.405,1004.57 302.405,998.439Z" style="fill:url(#_Linear28);"/>
                    </g>
                </g>
            </g>
        </g>
    </g>
    <defs>
        <linearGradient id="_Linear1" x1="0" y1="0" x2="1" y2="0" gradientUnits="userSpaceOnUse" gradientTransform="matrix(1191.11,-1191.13,1191.13,1191.11,34.0148,1786.8)"><stop offset="0" style="stop-color:rgb(118,122,133);stop-opacity:1"/><stop offset="1" style="stop-color:rgb(33,39,46);stop-opacity:1"/></linearGradient>
        <linearGradient id="_Linear2" x1="0" y1="0" x2="1" y2="0" gradientUnits="userSpaceOnUse" gradientTransform="matrix(3546.86,-3546.91,3546.91,3546.86,-775.775,3332.78)"><stop offset="0" style="stop-color:rgb(118,122,133);stop-opacity:1"/><stop offset="1" style="stop-color:rgb(33,39,46);stop-opacity:1"/></linearGradient>
        <linearGradient id="_Linear3" x1="0" y1="0" x2="1" y2="0" gradientUnits="userSpaceOnUse" gradientTransform="matrix(1191.11,-1191.13,1191.13,1191.11,-338.207,1786.8)"><stop offset="0" style="stop-color:rgb(118,122,133);stop-opacity:1"/><stop offset="1" style="stop-color:rgb(33,39,46);stop-opacity:1"/></linearGradient>
        <linearGradient id="_Linear4" x1="0" y1="0" x2="1" y2="0" gradientUnits="userSpaceOnUse" gradientTransform="matrix(3546.86,-3546.91,3546.91,3546.86,-1884.17,3332.78)"><stop offset="0" style="stop-color:rgb(118,122,133);stop-opacity:1"/><stop offset="1" style="stop-color:rgb(33,39,46);stop-opacity:1"/></linearGradient>
        <linearGradient id="_Linear5" x1="0" y1="0" x2="1" y2="0" gradientUnits="userSpaceOnUse" gradientTransform="matrix(1191.11,-1191.13,1191.13,1191.11,34.0148,1414.58)"><stop offset="0" style="stop-color:rgb(118,122,133);stop-opacity:1"/><stop offset="1" style="stop-color:rgb(33,39,46);stop-opacity:1"/></linearGradient>
        <linearGradient id="_Linear6" x1="0" y1="0" x2="1" y2="0" gradientUnits="userSpaceOnUse" gradientTransform="matrix(3546.86,-3546.91,3546.91,3546.86,-775.775,2224.39)"><stop offset="0" style="stop-color:rgb(118,122,133);stop-opacity:1"/><stop offset="1" style="stop-color:rgb(33,39,46);stop-opacity:1"/></linearGradient>
        <linearGradient id="_Linear7" x1="0" y1="0" x2="1" y2="0" gradientUnits="userSpaceOnUse" gradientTransform="matrix(1092.25,-1092.26,1092.26,1092.25,50.2789,1738.45)"><stop offset="0" style="stop-color:rgb(118,122,133);stop-opacity:1"/><stop offset="1" style="stop-color:rgb(33,39,46);stop-opacity:1"/></linearGradient>
        <linearGradient id="_Linear8" x1="0" y1="0" x2="1" y2="0" gradientUnits="userSpaceOnUse" gradientTransform="matrix(1092.25,-1092.26,1092.26,1092.25,-17.9867,1670.18)"><stop offset="0" style="stop-color:rgb(118,122,133);stop-opacity:1"/><stop offset="1" style="stop-color:rgb(33,39,46);stop-opacity:1"/></linearGradient>
        <linearGradient id="_Linear9" x1="0" y1="0" x2="1" y2="0" gradientUnits="userSpaceOnUse" gradientTransform="matrix(1092.25,-1092.26,1092.26,1092.25,-86.2523,1738.45)"><stop offset="0" style="stop-color:rgb(118,122,133);stop-opacity:1"/><stop offset="1" style="stop-color:rgb(33,39,46);stop-opacity:1"/></linearGradient>
        <linearGradient id="_Linear10" x1="0" y1="0" x2="1" y2="0" gradientUnits="userSpaceOnUse" gradientTransform="matrix(1092.25,-1092.26,1092.26,1092.25,-154.518,1670.18)"><stop offset="0" style="stop-color:rgb(118,122,133);stop-opacity:1"/><stop offset="1" style="stop-color:rgb(33,39,46);stop-opacity:1"/></linearGradient>
        <linearGradient id="_Linear11" x1="0" y1="0" x2="1" y2="0" gradientUnits="userSpaceOnUse" gradientTransform="matrix(1092.25,-1092.26,1092.26,1092.25,-154.518,1943.24)"><stop offset="0" style="stop-color:rgb(118,122,133);stop-opacity:1"/><stop offset="1" style="stop-color:rgb(33,39,46);stop-opacity:1"/></linearGradient>
        <linearGradient id="_Linear12" x1="0" y1="0" x2="1" y2="0" gradientUnits="userSpaceOnUse" gradientTransform="matrix(1092.25,-1092.26,1092.26,1092.25,-222.784,1738.45)"><stop offset="0" style="stop-color:rgb(118,122,133);stop-opacity:1"/><stop offset="1" style="stop-color:rgb(33,39,46);stop-opacity:1"/></linearGradient>
        <linearGradient id="_Linear13" x1="0" y1="0" x2="1" y2="0" gradientUnits="userSpaceOnUse" gradientTransform="matrix(1092.25,-1092.26,1092.26,1092.25,-154.518,1806.71)"><stop offset="0" style="stop-color:rgb(118,122,133);stop-opacity:1"/><stop offset="1" style="stop-color:rgb(33,39,46);stop-opacity:1"/></linearGradient>
        <linearGradient id="_Linear14" x1="0" y1="0" x2="1" y2="0" gradientUnits="userSpaceOnUse" gradientTransform="matrix(1092.25,-1092.26,1092.26,1092.25,-222.784,1874.98)"><stop offset="0" style="stop-color:rgb(118,122,133);stop-opacity:1"/><stop offset="1" style="stop-color:rgb(33,39,46);stop-opacity:1"/></linearGradient>
        <linearGradient id="_Linear15" x1="0" y1="0" x2="1" y2="0" gradientUnits="userSpaceOnUse" gradientTransform="matrix(1092.25,-1092.26,1092.26,1092.25,-291.049,1670.18)"><stop offset="0" style="stop-color:rgb(118,122,133);stop-opacity:1"/><stop offset="1" style="stop-color:rgb(33,39,46);stop-opacity:1"/></linearGradient>
        <linearGradient id="_Linear16" x1="0" y1="0" x2="1" y2="0" gradientUnits="userSpaceOnUse" gradientTransform="matrix(1092.25,-1092.26,1092.26,1092.25,-359.315,1738.45)"><stop offset="0" style="stop-color:rgb(118,122,133);stop-opacity:1"/><stop offset="1" style="stop-color:rgb(33,39,46);stop-opacity:1"/></linearGradient>
        <linearGradient id="_Linear17" x1="0" y1="0" x2="1" y2="0" gradientUnits="userSpaceOnUse" gradientTransform="matrix(1092.25,-1092.26,1092.26,1092.25,-222.784,1465.38)"><stop offset="0" style="stop-color:rgb(118,122,133);stop-opacity:1"/><stop offset="1" style="stop-color:rgb(33,39,46);stop-opacity:1"/></linearGradient>
        <linearGradient id="_Linear18" x1="0" y1="0" x2="1" y2="0" gradientUnits="userSpaceOnUse" gradientTransform="matrix(1092.25,-1092.26,1092.26,1092.25,-359.315,1465.38)"><stop offset="0" style="stop-color:rgb(118,122,133);stop-opacity:1"/><stop offset="1" style="stop-color:rgb(33,39,46);stop-opacity:1"/></linearGradient>
        <linearGradient id="_Linear19" x1="0" y1="0" x2="1" y2="0" gradientUnits="userSpaceOnUse" gradientTransform="matrix(1092.25,-1092.26,1092.26,1092.25,-222.784,1601.91)"><stop offset="0" style="stop-color:rgb(118,122,133);stop-opacity:1"/><stop offset="1" style="stop-color:rgb(33,39,46);stop-opacity:1"/></linearGradient>
        <linearGradient id="_Linear20" x1="0" y1="0" x2="1" y2="0" gradientUnits="userSpaceOnUse" gradientTransform="matrix(1092.25,-1092.26,1092.26,1092.25,-359.315,1601.91)"><stop offset="0" style="stop-color:rgb(118,122,133);stop-opacity:1"/><stop offset="1" style="stop-color:rgb(33,39,46);stop-opacity:1"/></linearGradient>
        <linearGradient id="_Linear21" x1="0" y1="0" x2="1" y2="0" gradientUnits="userSpaceOnUse" gradientTransform="matrix(1092.25,-1092.26,1092.26,1092.25,-427.58,1670.18)"><stop offset="0" style="stop-color:rgb(118,122,133);stop-opacity:1"/><stop offset="1" style="stop-color:rgb(33,39,46);stop-opacity:1"/></linearGradient>
        <linearGradient id="_Linear22" x1="0" y1="0" x2="1" y2="0" gradientUnits="userSpaceOnUse" gradientTransform="matrix(1092.25,-1092.26,1092.26,1092.25,-154.518,1533.65)"><stop offset="0" style="stop-color:rgb(118,122,133);stop-opacity:1"/><stop offset="1" style="stop-color:rgb(33,39,46);stop-opacity:1"/></linearGradient>
        <linearGradient id="_Linear23" x1="0" y1="0" x2="1" y2="0" gradientUnits="userSpaceOnUse" gradientTransform="matrix(1092.25,-1092.26,1092.26,1092.25,-291.049,1533.65)"><stop offset="0" style="stop-color:rgb(118,122,133);stop-opacity:1"/><stop offset="1" style="stop-color:rgb(33,39,46);stop-opacity:1"/></linearGradient>
        <linearGradient id="_Linear24" x1="0" y1="0" x2="1" y2="0" gradientUnits="userSpaceOnUse" gradientTransform="matrix(1092.25,-1092.26,1092.26,1092.25,-427.58,1533.65)"><stop offset="0" style="stop-color:rgb(118,122,133);stop-opacity:1"/><stop offset="1" style="stop-color:rgb(33,39,46);stop-opacity:1"/></linearGradient>
        <linearGradient id="_Linear25" x1="0" y1="0" x2="1" y2="0" gradientUnits="userSpaceOnUse" gradientTransform="matrix(803.458,-800.011,-800.011,-803.458,213.516,1598.44)"><stop offset="0" style="stop-color:rgb(218,158,210);stop-opacity:1"/><stop offset="1" style="stop-color:rgb(74,51,142);stop-opacity:1"/></linearGradient>
        <linearGradient id="_Linear26" x1="0" y1="0" x2="1" y2="0" gradientUnits="userSpaceOnUse" gradientTransform="matrix(-800.011,-803.458,-803.458,800.011,1013.52,1598.44)"><stop offset="0" style="stop-color:rgb(218,158,210);stop-opacity:1"/><stop offset="1" style="stop-color:rgb(74,51,142);stop-opacity:1"/></linearGradient>
        <linearGradient id="_Linear27" x1="0" y1="0" x2="1" y2="0" gradientUnits="userSpaceOnUse" gradientTransform="matrix(803.458,800.011,-800.011,803.458,213.516,798.434)"><stop offset="0" style="stop-color:rgb(218,158,210);stop-opacity:1"/><stop offset="1" style="stop-color:rgb(74,51,142);stop-opacity:1"/></linearGradient>
        <linearGradient id="_Linear28" x1="0" y1="0" x2="1" y2="0" gradientUnits="userSpaceOnUse" gradientTransform="matrix(800.011,-803.458,803.458,800.011,213.511,1598.44)"><stop offset="0" style="stop-color:rgb(218,158,210);stop-opacity:1"/><stop offset="1" style="stop-color:rgb(74,51,142);stop-opacity:1"/></linearGradient>
    </defs>
</svg>
