<svg xmlns="http://www.w3.org/2000/svg" viewBox="0 0 48 48"><defs><style>.cls-1,.cls-2{fill:none;}.cls-2{stroke:#000;stroke-linecap:round;stroke-linejoin:round;stroke-width:4px;}</style></defs><title>star_close_24</title><g id="レイヤー_2" data-name="レイヤー 2"><g id="Rect_最後透明に_" data-name="Rect（最後透明に）"><rect class="cls-1" width="48" height="48"/></g><g id="icon"><path class="cls-2" d="M23.7,34.1,12.9,42a.5.5,0,0,1-.78-.56l4.13-12.71a.51.51,0,0,0-.19-.56L5.26,20.27a.51.51,0,0,1,.29-.92H18.91a.5.5,0,0,0,.48-.35L23.52,6.3a.5.5,0,0,1,1,0L28.61,19a.5.5,0,0,0,.48.35H42.45a.51.51,0,0,1,.29.92l-10.8,7.85a.51.51,0,0,0-.19.56l4.13,12.71a.5.5,0,0,1-.78.56L24.3,34.1A.51.51,0,0,0,23.7,34.1Z"/></g></g></svg>